<svg xmlns="http://www.w3.org/2000/svg" viewBox="0 0 24 24" fill="currentColor">
  <!-- Calendar frame -->
  <path d="M19 3h-1V2c0-.55-.45-1-1-1s-1 .45-1 1v1H8V2c0-.55-.45-1-1-1s-1 .45-1 1v1H5C3.9 3 3 3.9 3 5v14c0 1.1.9 2 2 2h14c1.1 0 2-.9 2-2V5c0-1.1-.9-2-2-2zm0 16H5V9h14v10zm0-12H5V5h14v2z"/>
  
  <!-- Date boxes/dots -->
  <circle cx="8" cy="12" r="1"/>
  <circle cx="12" cy="12" r="1"/>
  <circle cx="16" cy="12" r="1"/>
  <circle cx="8" cy="16" r="1"/>
  <circle cx="12" cy="16" r="1"/>
  <circle cx="16" cy="16" r="1"/>
</svg>
